<svg xmlns="http://www.w3.org/2000/svg" viewBox="0 0 387.69 342.84"><defs><style>.cls-1{fill:#6b6d44;}.cls-2{fill:#d9e260;}.cls-3{fill:#fff2b0;}.cls-4{fill:#97b915;}.cls-5{fill:#2d411c;}</style></defs><g id="Layer_2" data-name="Layer 2"><g id="Layer_1-2" data-name="Layer 1"><path class="cls-1" d="M8.21,77.18c-9.69,22.92-9.3,47.72-6.41,72,5.75,48.28,23.37,93.91,58.39,128.49A218.26,218.26,0,0,0,113.42,316a241.56,241.56,0,0,0,85.27,25.64,206.67,206.67,0,0,0,54.2-1.27,180,180,0,0,0,60.37-21,162.21,162.21,0,0,0,35-26.53,131.31,131.31,0,0,0,23.22-31.48c11.19-21.36,16.14-45.47,16.21-69.48a197.65,197.65,0,0,0-4-39.26c-2.46-12.3-5.52-24.95-10.39-36.54-8.15-19.42-22.26-35.63-38.43-48.85A236.18,236.18,0,0,0,303,45.58a380.31,380.31,0,0,0-35.49-17.92A352,352,0,0,0,231.19,13.9a316.76,316.76,0,0,0-37.64-9.44C184.05,2.7,174.46,1.4,164.84.58,127.64-2.56,91.61,7.28,59,24.75,41.52,34.09,25.88,47.2,15.17,64A87.69,87.69,0,0,0,8.21,77.18Z"/><path class="cls-2" d="M356.25,123.81c-2.19-8.32-4.92-16.15-9.54-23.08A127.75,127.75,0,0,0,324.09,75c-13.56-11.78-28.55-21.13-44.34-29.54-10-5.3-20.16-10.16-30.54-14.43-10.63-4.37-21.86-7.27-32.9-10.58-14.65-4.39-29.69-6.55-44.73-8.54-7.84-1-15.91-.7-23.9-.67a133,133,0,0,0-43.55,7.41C88,24.28,72.29,30.78,58.06,40.3,44.79,49.18,33.21,59.89,26,74.52a86,86,0,0,0-8.46,31.14,150.34,150.34,0,0,0,.29,29.7c1.06,9.34,2.69,18.6,4.59,27.83,2,9.76,4.79,19.31,6.83,29.06,1.39,6.67,5.06,12.6,7.62,18.9a96.82,96.82,0,0,0,14.91,24.38c7,8.59,14.17,17,22.64,24.39a201.93,201.93,0,0,0,20.46,15.73A194.82,194.82,0,0,0,122.4,291c8.61,3.91,17.48,7.09,26.36,10.24a171,171,0,0,0,20.74,5.6,187.09,187.09,0,0,0,27.64,4.19c8.16.53,16.33.95,24.54.69a144.4,144.4,0,0,0,44.52-8.21c8.68-3.11,17.37-6.3,25.69-10.64,11.34-5.92,22-12.58,31.62-20.92a164.63,164.63,0,0,0,12.09-12.26c6.9-7.37,12-15.82,16.45-24.66,6.61-13,10.17-26.9,11.63-41.43a149,149,0,0,0,.24-31.31C362.46,149.19,360.7,136.07,356.25,123.81Z"/><path class="cls-3" d="M238.22,167c-2.54-4.17.86-8,1.56-12.12.92-5.43,2.55-10.72,1.27-16.35-1-4.24-3.62-6.57-7.65-7.55-6.33-1.55-12-3.48-15.89-9.7-3.54-5.65-6.83-5.89-13.4-3.66a45.42,45.42,0,0,0-9.14,4.51c-6,3.67-12.19,5.39-19.12,2.68-4.88-1.91-9.87-3.56-14.81-5.36a14.45,14.45,0,0,0-5.83-.67c-3.21.2-5.12,1.85-5.43,5.13a28.47,28.47,0,0,0-.26,4.32,20.14,20.14,0,0,1-6.66,16.54c-5.89,5.64-4.94,12.94,1.63,17.7,5.63,4.08,11.1,8.39,16.63,12.61a21.39,21.39,0,0,1,7.75,11.57c1.36,4.81,2.84,9.59,4.37,14.35,1.28,4,3,4.6,6.36,2.13,5.59-4.14,11.06-8.46,16.57-12.71a22.59,22.59,0,0,1,14.26-4.88,60.43,60.43,0,0,0,20.51-3.31C238.14,179.69,240.61,174.72,238.22,167Z"/><line class="cls-4" x1="69.85" y1="71.16" x2="143.06" y2="116.15"/><path class="cls-4" d="M69.85,71.16c6.62,2.92,13,6.23,19.28,9.67s12.46,7.06,18.57,10.81,12.11,7.63,18,11.68,11.74,8.24,17.33,12.83c-6.62-2.9-13-6.22-19.28-9.66s-12.47-7.06-18.57-10.81S93.1,88,87.18,84,75.44,75.75,69.85,71.16Z"/><line class="cls-4" x1="252.23" y1="187.57" x2="317.73" y2="236.27"/><path class="cls-4" d="M252.23,187.57c6,3.27,11.81,6.92,17.48,10.68S280.94,206,286.4,210s10.82,8.25,16.07,12.59,10.4,8.82,15.26,13.67c-6-3.27-11.81-6.91-17.48-10.68s-11.23-7.71-16.68-11.77-10.82-8.25-16.07-12.59S257.1,192.41,252.23,187.57Z"/><line class="cls-4" x1="48.6" y1="182.07" x2="132.79" y2="164.87"/><path class="cls-4" d="M48.6,182.07c6.82-2.39,13.73-4.33,20.68-6.12s13.93-3.37,20.94-4.8,14.06-2.71,21.15-3.81,14.21-2,21.42-2.47c-6.82,2.4-13.73,4.34-20.67,6.13s-13.93,3.37-21,4.8S77.11,178.5,70,179.59,55.81,181.6,48.6,182.07Z"/><line class="cls-4" x1="252.12" y1="133.79" x2="317.43" y2="100.39"/><path class="cls-4" d="M252.12,133.79c5-3.65,10.21-6.89,15.48-10s10.65-6,16.09-8.81,11-5.42,16.56-7.9,11.29-4.78,17.18-6.69a178.19,178.19,0,0,1-15.48,10q-7.92,4.65-16.1,8.81t-16.56,7.89C263.68,129.56,258,131.88,252.12,133.79Z"/><line class="cls-4" x1="103.4" y1="249.85" x2="153.89" y2="206.46"/><path class="cls-4" d="M103.4,249.85a152.61,152.61,0,0,1,11.42-12.25c4-3.89,8.08-7.62,12.28-11.24s8.52-7.12,13-10.47a148.94,148.94,0,0,1,13.83-9.43,150.72,150.72,0,0,1-11.4,12.26q-6,5.82-12.3,11.23t-13,10.46A152.56,152.56,0,0,1,103.4,249.85Z"/><line class="cls-4" x1="284.38" y1="162.92" x2="341.28" y2="164.27"/><path class="cls-4" d="M284.38,162.92a113.68,113.68,0,0,1,14.27-1.52c4.75-.24,9.49-.29,14.24-.18s9.47.39,14.21.85a110.1,110.1,0,0,1,14.18,2.2A111.85,111.85,0,0,1,327,165.79c-4.75.24-9.5.29-14.24.18s-9.47-.39-14.21-.85A111.86,111.86,0,0,1,284.38,162.92Z"/><line class="cls-4" x1="229.26" y1="44.07" x2="212.2" y2="109.04"/><path class="cls-4" d="M229.26,44.07a154.64,154.64,0,0,1-2.47,16.71c-1.08,5.5-2.35,11-3.77,16.37s-3,10.79-4.75,16.12A157.56,157.56,0,0,1,212.2,109a152,152,0,0,1,2.46-16.72c1.08-5.5,2.35-11,3.77-16.37s3-10.79,4.77-16.11A154.19,154.19,0,0,1,229.26,44.07Z"/><line class="cls-4" x1="212.07" y1="210.87" x2="218.2" y2="277.76"/><path class="cls-4" d="M212.07,210.87a153.65,153.65,0,0,1,3.38,16.55c.86,5.54,1.53,11.1,2.05,16.68s.86,11.16,1,16.77a153.91,153.91,0,0,1-.33,16.89,156.16,156.16,0,0,1-3.39-16.55q-1.29-8.32-2-16.68c-.5-5.57-.85-11.16-1-16.77A156.33,156.33,0,0,1,212.07,210.87Z"/><path class="cls-5" d="M105.05,137.33a23.41,23.41,0,0,1-6.06-.05c-4.75-.74-9.47-1.61-14.21-2.39-2.21-.36-5-.29-6.76-1.9-2.82-2.62-2.17-7.49-.22-10.42,2.57-3.86,6.93-3.68,10.89-2.35,4.21,1.4,8.38,2.92,12.48,4.62a39.08,39.08,0,0,1,5.61,2.49c1.76,1.08,3.62,2.87,4,5C111.28,135.59,108.28,136.9,105.05,137.33Z"/><path class="cls-5" d="M130.58,194.83a23.72,23.72,0,0,1-4.68,3.86c-4.11,2.48-8.29,4.85-12.42,7.3-1.93,1.14-4,3-6.41,2.88-3.84-.19-6.48-4.35-6.86-7.84-.51-4.61,3-7.27,6.83-8.8,4.13-1.63,8.31-3.14,12.54-4.48a40.15,40.15,0,0,1,5.9-1.69c2-.31,4.62-.12,6.25,1.28C134.24,189.49,132.78,192.43,130.58,194.83Z"/><path class="cls-5" d="M182.18,226.79a23.3,23.3,0,0,1-.37,6.05c-1,4.7-2.1,9.37-3.12,14.07-.47,2.18-.56,5-2.25,6.65-2.76,2.67-7.6,1.78-10.42-.33-3.72-2.76-3.31-7.11-1.78-11,1.62-4.13,3.36-8.22,5.26-12.23a39.63,39.63,0,0,1,2.79-5.47c1.16-1.7,3.06-3.46,5.2-3.7C180.77,220.47,181.92,223.54,182.18,226.79Z"/><path class="cls-5" d="M242.36,103.48a23.34,23.34,0,0,1,2.33-5.6c2.47-4.12,5.05-8.17,7.55-12.27,1.17-1.91,2.17-4.55,4.31-5.55,3.48-1.62,7.76.81,9.74,3.72,2.61,3.83.79,7.8-1.92,11-2.89,3.37-5.86,6.67-9,9.83a38.65,38.65,0,0,1-4.42,4.26c-1.66,1.22-4,2.27-6.12,1.79C241.63,109.91,241.54,106.63,242.36,103.48Z"/><path class="cls-5" d="M163.14,93.61a23,23,0,0,1-2.77-5.39c-1.56-4.55-3-9.14-4.5-13.69-.71-2.13-2.08-4.6-1.46-6.87,1-3.71,5.63-5.41,9.13-5,4.61.48,6.48,4.43,7.14,8.55.72,4.38,1.31,8.78,1.72,13.2a39.23,39.23,0,0,1,.39,6.12c-.13,2.06-.86,4.54-2.58,5.84C167.58,98.32,165,96.27,163.14,93.61Z"/><path class="cls-5" d="M284.27,141.66a57,57,0,0,1,10.83-4.73c3.95-1.42,7.83-3.14,12-3.87,3-.52,7.3-.32,9.32,2.26,2.4,3.05.74,6.5-1.85,8.77s-6.13,3.06-9.53,3.89a47.78,47.78,0,0,1-12.14,1.44c-3,0-8.87.08-11.37-1.93C279.24,145.66,281.28,143.5,284.27,141.66Z"/><path class="cls-5" d="M247.88,214.62c3.6,2.68,6.38,6.51,8.95,10.14s5.9,7.23,7.57,11.59c1.06,2.76.67,6.39-1.9,8.22-5.57,4-10.64-2.61-13.35-6.81a51.49,51.49,0,0,1-8.08-20.95C240.38,211.81,244.91,212.4,247.88,214.62Z"/><path class="cls-5" d="M283,177.36c5.71.3,11.12,2.49,16.34,4.67,4,1.64,9.28,2.65,12,6.27,2.58,3.41.4,6.9-3,8.62-5.19,2.64-10.69-.67-15.39-2.92a44.36,44.36,0,0,1-8.46-5.17c-2.19-1.75-5.75-4.62-6.88-7.23C276.17,178.14,280.57,177.24,283,177.36Z"/></g></g></svg>