<svg xmlns="http://www.w3.org/2000/svg" viewBox="0 0 667.2 139.7"><defs><style>.cls-1{fill:#6b6d44;}.cls-2{fill:#d9e260;}.cls-3{fill:#fff2b0;}.cls-4{fill:#97b915;}.cls-5{fill:#2d411c;}</style></defs><g id="Layer_2" data-name="Layer 2"><g id="Layer_1-2" data-name="Layer 1"><path class="cls-1" d="M3.35,31.45C-.6,40.79-.45,50.89.73,60.78,3.08,80.45,10.25,99,24.52,113.13a89.05,89.05,0,0,0,21.7,15.63A98.5,98.5,0,0,0,81,139.21a84.58,84.58,0,0,0,22.08-.52,73.38,73.38,0,0,0,24.6-8.55,65.94,65.94,0,0,0,14.26-10.81,53.17,53.17,0,0,0,9.46-12.83A61.21,61.21,0,0,0,158,78.19a80.26,80.26,0,0,0-1.63-16,78.14,78.14,0,0,0-4.23-14.89C148.79,39.4,143,32.79,136.45,27.4a96,96,0,0,0-13-8.83A155.48,155.48,0,0,0,109,11.27,141.1,141.1,0,0,0,94.2,5.66,130.3,130.3,0,0,0,78.86,1.82Q73.05.74,67.17.24C52-1,37.33,3,24,10.09a47.55,47.55,0,0,0-17.84,16A35.19,35.19,0,0,0,3.35,31.45Z"/><path class="cls-2" d="M145.16,50.45a30.66,30.66,0,0,0-3.89-9.4,51.87,51.87,0,0,0-9.21-10.48,95.71,95.71,0,0,0-18.07-12c-4.07-2.16-8.22-4.14-12.45-5.88s-8.9-3-13.4-4.32A117,117,0,0,0,69.91,4.86a70,70,0,0,0-9.73-.27,54.07,54.07,0,0,0-17.75,3,81.69,81.69,0,0,0-18.77,8.82C18.25,20,13.53,24.4,10.6,30.36A35.07,35.07,0,0,0,7.16,43.05a61.23,61.23,0,0,0,.12,12.11C7.71,59,8.37,62.73,9.15,66.5c.81,4,1.95,7.86,2.78,11.83C12.5,81.05,14,83.47,15,86A39.56,39.56,0,0,0,21.11,96a78.65,78.65,0,0,0,9.22,9.94,84.8,84.8,0,0,0,8.34,6.41,79.64,79.64,0,0,0,11.2,6.27c3.51,1.59,7.13,2.89,10.74,4.17A70.73,70.73,0,0,0,69.06,125a76.68,76.68,0,0,0,11.27,1.71c3.32.22,6.65.39,10,.28a58.85,58.85,0,0,0,18.14-3.35,81.63,81.63,0,0,0,10.47-4.33,65.53,65.53,0,0,0,12.88-8.52,66.5,66.5,0,0,0,4.93-5,42.57,42.57,0,0,0,6.7-10,47.42,47.42,0,0,0,4.74-16.88,60.39,60.39,0,0,0,.09-12.75C147.69,60.79,147,55.44,145.16,50.45Z"/><path class="cls-3" d="M97.07,68.06c-1-1.7.35-3.27.63-4.94.38-2.21,1-4.37.52-6.66a3.85,3.85,0,0,0-3.12-3.08c-2.58-.63-4.88-1.42-6.47-4-1.45-2.3-2.79-2.4-5.46-1.49a18.74,18.74,0,0,0-3.73,1.84c-2.43,1.49-5,2.19-7.78,1.09-2-.78-4-1.45-6-2.18a5.84,5.84,0,0,0-2.38-.28A2.12,2.12,0,0,0,61,50.5a11.64,11.64,0,0,0-.11,1.76A8.19,8.19,0,0,1,58.21,59c-2.4,2.3-2,5.27.66,7.21,2.3,1.67,4.53,3.42,6.78,5.14a8.74,8.74,0,0,1,3.16,4.72c.55,2,1.15,3.9,1.78,5.84.52,1.62,1.23,1.88,2.59.87,2.28-1.69,4.51-3.45,6.75-5.18a9.28,9.28,0,0,1,5.81-2,24.26,24.26,0,0,0,8.36-1.35C97,73.22,98,71.19,97.07,68.06Z"/><line class="cls-4" x1="28.46" y1="29" x2="58.29" y2="47.33"/><path class="cls-4" d="M28.46,29c2.7,1.18,5.29,2.53,7.86,3.93s5.08,2.88,7.56,4.41,4.94,3.11,7.35,4.76,4.79,3.36,7.06,5.23c-2.7-1.19-5.29-2.54-7.85-3.94s-5.08-2.88-7.57-4.4-4.94-3.12-7.35-4.77S30.74,30.86,28.46,29Z"/><line class="cls-4" x1="102.77" y1="76.43" x2="129.47" y2="96.27"/><path class="cls-4" d="M102.77,76.43c2.47,1.33,4.82,2.82,7.13,4.35s4.57,3.14,6.8,4.79,4.41,3.36,6.55,5.13,4.23,3.6,6.22,5.57c-2.47-1.33-4.82-2.82-7.13-4.35s-4.57-3.14-6.8-4.8S111.14,83.76,109,82,104.76,78.4,102.77,76.43Z"/><line class="cls-4" x1="19.8" y1="74.19" x2="54.11" y2="67.18"/><path class="cls-4" d="M19.8,74.19c2.78-1,5.6-1.77,8.43-2.5s5.67-1.37,8.53-2,5.73-1.11,8.62-1.55,5.79-.82,8.73-1c-2.78,1-5.6,1.77-8.43,2.5S40,71.05,37.15,71.63s-5.73,1.1-8.62,1.55S22.74,74,19.8,74.19Z"/><line class="cls-4" x1="102.73" y1="54.52" x2="129.34" y2="40.91"/><path class="cls-4" d="M102.73,54.52c2-1.49,4.16-2.81,6.31-4.08s4.34-2.45,6.56-3.59,4.46-2.21,6.74-3.22a74,74,0,0,1,7-2.72c-2,1.49-4.16,2.81-6.31,4.08s-4.34,2.45-6.55,3.58-4.47,2.21-6.75,3.22S105.13,53.74,102.73,54.52Z"/><line class="cls-4" x1="42.13" y1="101.81" x2="62.71" y2="84.12"/><path class="cls-4" d="M42.13,101.81a65,65,0,0,1,4.65-5c1.63-1.58,3.3-3.1,5-4.58s3.47-2.9,5.28-4.26a61.54,61.54,0,0,1,5.64-3.85,63.08,63.08,0,0,1-4.65,5q-2.43,2.37-5,4.58T47.77,98A61.54,61.54,0,0,1,42.13,101.81Z"/><line class="cls-4" x1="115.88" y1="66.39" x2="139.06" y2="66.93"/><path class="cls-4" d="M115.88,66.39a44.07,44.07,0,0,1,5.81-.62c1.94-.1,3.87-.12,5.8-.08s3.86.16,5.79.35a44.15,44.15,0,0,1,5.78.89,46,46,0,0,1-5.81.63c-1.94.09-3.87.11-5.81.07s-3.86-.16-5.79-.35A47.94,47.94,0,0,1,115.88,66.39Z"/><line class="cls-4" x1="93.42" y1="17.96" x2="86.46" y2="44.43"/><path class="cls-4" d="M93.42,18a67.32,67.32,0,0,1-1,6.81c-.44,2.24-1,4.46-1.54,6.67S89.65,35.83,88.94,38a64.53,64.53,0,0,1-2.48,6.43,61.39,61.39,0,0,1,1-6.81c.44-2.24,1-4.47,1.53-6.67s1.23-4.4,2-6.57A61.07,61.07,0,0,1,93.42,18Z"/><line class="cls-4" x1="86.41" y1="85.92" x2="88.91" y2="113.18"/><path class="cls-4" d="M86.41,85.92a63.6,63.6,0,0,1,1.38,6.75c.35,2.25.62,4.52.83,6.79S89,104,89,106.29a63.47,63.47,0,0,1-.13,6.89,63.6,63.6,0,0,1-1.38-6.75c-.35-2.26-.62-4.52-.83-6.79s-.35-4.55-.42-6.84A63.34,63.34,0,0,1,86.41,85.92Z"/><path class="cls-5" d="M42.8,56a9.92,9.92,0,0,1-2.47,0c-1.93-.31-3.85-.66-5.79-1-.9-.15-2-.13-2.75-.78-1.15-1.07-.89-3-.09-4.25,1.05-1.57,2.83-1.49,4.44-1s3.41,1.2,5.08,1.89a15.61,15.61,0,0,1,2.29,1,3.3,3.3,0,0,1,1.62,2C45.34,55.25,44.12,55.78,42.8,56Z"/><path class="cls-5" d="M53.2,79.39A9.65,9.65,0,0,1,51.3,81c-1.68,1-3.38,2-5.06,3-.79.47-1.65,1.23-2.61,1.18-1.57-.08-2.64-1.77-2.8-3.2C40.62,80,42,79,43.62,78.33s3.38-1.28,5.1-1.83a17,17,0,0,1,2.41-.69,3.28,3.28,0,0,1,2.55.53C54.7,77.21,54.1,78.41,53.2,79.39Z"/><path class="cls-5" d="M74.23,92.41a8.93,8.93,0,0,1-.15,2.46c-.4,1.92-.85,3.82-1.27,5.74-.19.89-.23,2-.92,2.71-1.12,1.09-3.09.72-4.24-.14-1.52-1.12-1.35-2.9-.73-4.48s1.37-3.35,2.15-5a15.55,15.55,0,0,1,1.13-2.23A3.33,3.33,0,0,1,72.32,90C73.66,89.84,74.13,91.08,74.23,92.41Z"/><path class="cls-5" d="M98.75,42.16a9.77,9.77,0,0,1,1-2.28c1-1.68,2.06-3.33,3.08-5,.47-.78.88-1.85,1.75-2.26,1.43-.66,3.17.33,4,1.52,1.07,1.56.33,3.18-.78,4.47s-2.39,2.71-3.66,4a15.56,15.56,0,0,1-1.8,1.74,3.28,3.28,0,0,1-2.49.73C98.45,44.78,98.42,43.45,98.75,42.16Z"/><path class="cls-5" d="M66.47,38.14A9.76,9.76,0,0,1,65.34,36c-.63-1.86-1.21-3.73-1.83-5.58-.29-.87-.84-1.87-.59-2.8.41-1.51,2.29-2.21,3.72-2.06,1.88.2,2.64,1.81,2.91,3.49s.53,3.58.7,5.38a17.26,17.26,0,0,1,.16,2.49,3.31,3.31,0,0,1-1,2.38C68.28,40.06,67.24,39.23,66.47,38.14Z"/><path class="cls-5" d="M115.83,57.72a23.4,23.4,0,0,1,4.41-1.93,30,30,0,0,1,4.89-1.57c1.2-.22,3-.13,3.8.92,1,1.24.3,2.65-.76,3.57a8.63,8.63,0,0,1-3.88,1.59,19.65,19.65,0,0,1-5,.58c-1.23,0-3.61,0-4.63-.78S114.61,58.47,115.83,57.72Z"/><path class="cls-5" d="M101,87.45a17.78,17.78,0,0,1,3.65,4.13,22.8,22.8,0,0,1,3.08,4.72,2.85,2.85,0,0,1-.77,3.35c-2.27,1.62-4.33-1.06-5.44-2.77a21,21,0,0,1-3.29-8.54C98,86.31,99.79,86.55,101,87.45Z"/><path class="cls-5" d="M115.31,72.27a20.25,20.25,0,0,1,6.66,1.9c1.61.67,3.78,1.08,4.9,2.56s.16,2.81-1.21,3.51c-2.11,1.07-4.36-.28-6.27-1.19a17.91,17.91,0,0,1-3.45-2.11,10,10,0,0,1-2.8-3C112.53,72.59,114.32,72.22,115.31,72.27Z"/><path class="cls-1" d="M256.74,109.81l-27.19-37L217.63,84.6v25.21h-9V35.34h9V73.73L255.7,35.34h10.66L235.62,66.2l31.79,43.61Z"/><path class="cls-1" d="M317.29,109.81,304.53,67l-12.76,42.78h-9.2l-19.35-54h9l15.37,44.24,13-44.24h7.95l13,44.24,15.38-44.24h9l-19.35,54Z"/><path class="cls-1" d="M351.69,40.26c0-2.72,1.89-4.81,5.34-4.81s5.44,2.09,5.44,4.81-2,4.81-5.44,4.81S351.69,43,351.69,40.26Zm1.05,69.55v-54h8.68v54Z"/><path class="cls-1" d="M369.68,109.81v-6L400,62.12H370.73V55.84H410v6l-30.23,41.73H411v6.28Z"/><path class="cls-1" d="M417.26,82.83c0-16.63,8.58-28,25.21-28s25.31,11.71,25.31,26.77a11,11,0,0,1-.21,2.62H425.94c.21,14.64,7.11,20.6,17.15,20.6,8.68,0,13.91-4.6,15.8-11.4h7.73c-2.5,10.77-9.93,17.46-23.53,17.46C426.46,110.85,417.26,100.19,417.26,82.83Zm8.68-4.5H459.1c-1.15-11.72-7.33-17.47-16.63-17.47S427.09,66.61,425.94,78.33Z"/><path class="cls-1" d="M476.77,109.81v-54H485V68.6c2.93-9.41,7.84-13.28,15.9-13.28a27.43,27.43,0,0,1,4.91.52v7.53l-5.23-.21c-9.2,0-15.16,7.32-15.16,20.61v26Z"/><path class="cls-1" d="M508.87,94.54c0-8,5-14.12,18.2-15.27l9.93-.84c7.33-.62,9.42-2.19,9.42-6.17,0-6.9-3.87-11.19-12.87-11.19-8.36,0-12.76,3.56-13.38,11.19H511.8c0-10.66,6.59-17.46,21.65-17.46s21.65,6.8,21.65,17.46V96c0,7.32.63,12,1.67,13.81h-7.63c-1.68-2.3-2.3-4.5-2.3-10.25-2.93,7.53-9.31,11.29-18.83,11.29C515.77,110.85,508.87,104.58,508.87,94.54Zm37.55-8.26V80.94c-1.26,1.68-4.6,2.72-9.42,3.14l-7.42.63c-8.58.63-12,4.29-12,9.31,0,6.17,3.77,10.77,12.76,10.77C541,104.79,546.42,96.32,546.42,86.28Z"/><path class="cls-1" d="M601.63,109.81V75.5c0-9-3.24-13.7-11.92-13.7-9,0-14.85,7-14.85,17.89v30.12h-8.68v-54h8.26v9.94c3-6.69,8.58-11,17.68-11,12.34,0,18.2,6.27,18.2,19.35v35.66Z"/><path class="cls-1" d="M619.3,94.54c0-8,5-14.12,18.2-15.27l9.94-.84c7.32-.62,9.41-2.19,9.41-6.17,0-6.9-3.87-11.19-12.86-11.19-8.37,0-12.76,3.56-13.39,11.19h-8.37c0-10.66,6.59-17.46,21.65-17.46s21.65,6.8,21.65,17.46V96c0,7.32.63,12,1.67,13.81h-7.63c-1.67-2.3-2.3-4.5-2.3-10.25-2.93,7.53-9.31,11.29-18.83,11.29C626.21,110.85,619.3,104.58,619.3,94.54Zm37.55-8.26V80.94c-1.25,1.68-4.6,2.72-9.41,3.14l-7.43.63c-8.57.63-12,4.29-12,9.31,0,6.17,3.76,10.77,12.75,10.77C651.41,104.79,656.85,96.32,656.85,86.28Z"/></g></g></svg>